HIERARCHY
ROOT Hips
{
 OFFSET 0.000000 0.000000 0.000000
 CHANNELS 6 Xposition Yposition Zposition Yrotation Xrotation Zrotation
 JOINT Chest
 {
  OFFSET 0.000000 10.932484 0.001155
  CHANNELS 3 Yrotation Xrotation Zrotation
  JOINT Chest2
  {
   OFFSET 0.000000 12.093805 -0.002099
   CHANNELS 3 Yrotation Xrotation Zrotation
   JOINT Chest3
   {
    OFFSET 0.000000 10.927800 0.000000
    CHANNELS 3 Yrotation Xrotation Zrotation
    JOINT Chest4
    {
     OFFSET 0.000000 10.927800 0.000000
     CHANNELS 3 Yrotation Xrotation Zrotation
     JOINT Neck
     {
      OFFSET 0.000000 15.355144 0.000000
      CHANNELS 3 Yrotation Xrotation Zrotation
      JOINT Head
      {
       OFFSET 0.000000 10.170446 -0.004991
       CHANNELS 3 Yrotation Xrotation Zrotation
       End Site
       {
        OFFSET 0.000000 19.463738 -0.002607
       }
      }
     }
     JOINT RightCollar
     {
      OFFSET -3.333126 8.566406 0.000000
      CHANNELS 3 Yrotation Xrotation Zrotation
      JOINT RightShoulder
      {
       OFFSET -15.529370 0.000000 0.000000
       CHANNELS 3 Yrotation Xrotation Zrotation
       JOINT RightElbow
       {
        OFFSET 0.000000 -33.145213 0.000000
        CHANNELS 3 Yrotation Xrotation Zrotation
        JOINT RightWrist
        {
         OFFSET 0.000000 -27.120720 -0.000000
         CHANNELS 3 Yrotation Xrotation Zrotation
         End Site
         {
          OFFSET 0.000000 -20.306483 0.000000
         }
        }
       }
      }
     }
     JOINT LeftCollar
     {
      OFFSET 3.333126 8.566406 0.000000
      CHANNELS 3 Yrotation Xrotation Zrotation
      JOINT LeftShoulder
      {
       OFFSET 15.529370 0.000000 0.000000
       CHANNELS 3 Yrotation Xrotation Zrotation
       JOINT LeftElbow
       {
        OFFSET 0.000000 -33.145213 0.000000
        CHANNELS 3 Yrotation Xrotation Zrotation
        JOINT LeftWrist
        {
         OFFSET 0.000000 -27.120720 -0.000000
         CHANNELS 3 Yrotation Xrotation Zrotation
         End Site
         {
          OFFSET 0.000000 -20.306483 0.000000
         }
        }
       }
      }
     }
    }
   }
  }
 }
 JOINT RightHip
 {
  OFFSET -8.869179 -0.005661 -0.000578
  CHANNELS 3 Yrotation Xrotation Zrotation
  JOINT RightKnee
  {
   OFFSET 0.000000 -45.835245 0.000547
   CHANNELS 3 Yrotation Xrotation Zrotation
   JOINT RightAnkle
   {
    OFFSET 0.000000 -44.890236 0.000924
    CHANNELS 3 Yrotation Xrotation Zrotation
    JOINT RightToe
    {
     OFFSET 0.000000 -8.082775 18.351045
     CHANNELS 3 Yrotation Xrotation Zrotation
     End Site
     {
      OFFSET 0.000000 -1.681997 7.345339
     }
    }
   }
  }
 }
 JOINT LeftHip
 {
  OFFSET 8.869179 -0.005661 -0.000578
  CHANNELS 3 Yrotation Xrotation Zrotation
  JOINT LeftKnee
  {
   OFFSET 0.000000 -45.835245 0.000547
   CHANNELS 3 Yrotation Xrotation Zrotation
   JOINT LeftAnkle
   {
    OFFSET 0.000000 -44.890236 0.000924
    CHANNELS 3 Yrotation Xrotation Zrotation
    JOINT LeftToe
    {
     OFFSET 0.000000 -8.082775 18.351045
     CHANNELS 3 Yrotation Xrotation Zrotation
     End Site
     {
      OFFSET 0.000000 -1.681997 7.345339
     }
    }
   }
  }
 }
}
MOTION
Frames: 9
Frame Time: 0.008333
306.592763 53.659811 91.843037 -50.749287 -25.991017 -0.751609 -0.272103 15.571903 -0.329034 -0.140172 6.860245 -0.438140 -0.140172 6.860245 -0.438140 -0.100064 5.145288 -0.326631 -4.653181 11.390989 -0.949156 -8.523866 -14.948468 0.215600 -5.383801 1.116608 6.411405 25.550978 -30.028264 -27.504762 13.246767 -33.850668 5.343436 35.735625 -3.748720 -21.733469 0.820841 -0.181871 -5.653972 -24.251249 -32.746262 33.313601 11.862156 -28.992569 -12.793183 -28.600970 -1.594031 12.446187 -20.099030 -61.764124 4.982207 -177.011773 74.581508 173.751331 2.494949 -16.631353 -1.537086 0.020000 0.349932 0.030868 15.552257 -63.961087 1.343989 -175.831854 65.644808 -172.077601 3.771305 -23.437001 4.144805 -0.257485 -1.099708 -0.111822
306.582843 53.661768 91.836862 -50.752130 -26.019598 -0.769550 -0.236848 15.590064 -0.310760 -0.135470 6.858611 -0.438922 -0.135470 6.858611 -0.438922 -0.096534 5.144059 -0.327270 -4.649759 11.397207 -0.937089 -8.522250 -14.936320 0.236838 -5.380887 1.130953 6.403228 25.585541 -30.005776 -27.538173 13.172716 -33.859017 5.387418 35.680904 -3.767456 -21.741209 0.834123 -0.149717 -5.655707 -24.260908 -32.779655 33.321260 11.946809 -28.895021 -12.849648 -28.455434 -1.922633 12.645608 -20.089733 -61.723251 5.004138 -176.973199 74.584069 173.794089 2.489680 -16.629147 -1.535856 0.017924 0.348062 0.031543 15.461571 -63.944213 1.438608 -175.778334 65.639175 -172.041688 3.847285 -23.415025 4.121667 -0.268466 -1.119740 -0.116894
306.577525 53.660987 91.830072 -50.739775 -26.028777 -0.783560 -0.220857 15.594915 -0.306164 -0.130904 6.859133 -0.440357 -0.130904 6.859133 -0.440357 -0.093097 5.144447 -0.328397 -4.646331 11.403555 -0.923538 -8.521263 -14.923833 0.260909 -5.378343 1.141978 6.404741 25.615496 -29.990293 -27.565602 13.112945 -33.869555 5.426347 35.636335 -3.788279 -21.753092 0.843663 -0.127551 -5.656621 -24.265357 -32.814422 33.343692 12.052283 -28.820545 -12.941346 -28.269999 -2.250867 12.849829 -20.088465 -61.707805 5.020754 -176.933872 74.584548 173.834169 2.491053 -16.628398 -1.535137 0.018793 0.348995 0.033830 15.387144 -63.951037 1.501221 -175.724097 65.628467 -171.999503 3.819727 -23.392885 4.137828 -0.278172 -1.131707 -0.122622
306.574343 53.659837 91.825060 -50.726909 -26.039394 -0.791212 -0.206974 15.599430 -0.303682 -0.126207 6.859402 -0.439627 -0.126207 6.859402 -0.439627 -0.089586 5.144646 -0.327903 -4.645813 11.407445 -0.910184 -8.525905 -14.915776 0.286037 -5.382176 1.157180 6.402559 25.650616 -29.980969 -27.599049 13.050161 -33.877802 5.467676 35.604399 -3.805620 -21.761849 0.855576 -0.114768 -5.660100 -24.268719 -32.830840 33.365997 12.184319 -28.704830 -13.075272 -28.068054 -2.600710 13.087983 -20.081467 -61.696357 5.025746 -176.909078 74.582128 173.859284 2.470818 -16.624707 -1.529932 0.019231 0.347669 0.034993 15.329298 -63.949707 1.545667 -175.676222 65.622424 -171.966106 3.793780 -23.380959 4.157368 -0.290902 -1.135537 -0.128672
306.570443 53.657174 91.817863 -50.716333 -26.044174 -0.800471 -0.193442 15.603999 -0.297551 -0.121011 6.860778 -0.438734 -0.121011 6.860778 -0.438734 -0.085703 5.145674 -0.327291 -4.649129 11.413769 -0.901234 -8.535850 -14.903299 0.304216 -5.388259 1.165633 6.390063 25.675614 -29.979136 -27.618799 12.990045 -33.883523 5.507888 35.561918 -3.826744 -21.771174 0.862186 -0.108655 -5.663622 -24.252799 -32.850371 33.386548 12.344987 -28.627119 -13.245947 -27.861554 -2.849590 13.271441 -20.080370 -61.690762 5.037520 -176.880457 74.580415 173.892597 2.458615 -16.620028 -1.528496 0.017615 0.347293 0.034106 15.264152 -63.956727 1.595266 -175.646200 65.612810 -171.956236 3.857961 -23.374054 4.135466 -0.291121 -1.142008 -0.130741
306.566975 53.654160 91.813754 -50.711023 -26.056131 -0.806476 -0.179022 15.611928 -0.293694 -0.117221 6.861302 -0.438284 -0.117221 6.861302 -0.438284 -0.082869 5.146064 -0.326998 -4.647350 11.422997 -0.892302 -8.535845 -14.885688 0.319939 -5.390133 1.172717 6.385183 25.695523 -29.974248 -27.635655 12.933648 -33.887399 5.541594 35.521793 -3.845424 -21.767769 0.872619 -0.101946 -5.659071 -24.220093 -32.855654 33.398281 12.530361 -28.560140 -13.452014 -27.691632 -3.010061 13.408218 -20.070805 -61.680368 5.036971 -176.860735 74.579993 173.910645 2.510373 -16.613955 -1.540017 0.018262 0.347979 0.032719 15.214592 -63.956689 1.635771 -175.608406 65.601531 -171.929733 3.844860 -23.364705 4.151189 -0.300811 -1.147197 -0.138433
306.565408 53.650088 91.808300 -50.699326 -26.060630 -0.813100 -0.168188 15.614826 -0.286174 -0.113631 6.862645 -0.436315 -0.113631 6.862645 -0.436315 -0.080201 5.147068 -0.325562 -4.648808 11.435732 -0.888189 -8.539759 -14.861731 0.327585 -5.398871 1.181989 6.379852 25.709831 -29.979470 -27.652340 12.885127 -33.888385 5.578126 35.491934 -3.859724 -21.772576 0.877873 -0.095279 -5.659791 -24.170822 -32.859130 33.392418 12.694138 -28.526969 -13.636909 -27.566092 -3.128862 13.484594 -20.063460 -61.677524 5.039115 -176.823074 74.576788 173.954318 2.478276 -16.611233 -1.529325 0.017039 0.348100 0.029697 15.195382 -63.962890 1.635241 -175.602725 65.591495 -171.929183 3.955387 -23.362020 4.106824 -0.296859 -1.151977 -0.135188
306.566538 53.647618 91.805787 -50.691643 -26.068659 -0.810042 -0.164011 15.621335 -0.286235 -0.112440 6.864828 -0.434408 -0.112440 6.864828 -0.434408 -0.079329 5.148704 -0.324146 -4.646220 11.446343 -0.885140 -8.535553 -14.841982 0.331574 -5.405252 1.182018 6.374224 25.726507 -29.980474 -27.666464 12.831650 -33.893601 5.623369 35.463593 -3.858142 -21.781775 0.895336 -0.092719 -5.662658 -24.114704 -32.868805 33.371906 12.809835 -28.498516 -13.782425 -27.509449 -3.220240 13.509266 -20.038861 -61.676238 5.016970 -176.810912 74.574888 173.970726 2.475601 -16.605303 -1.528339 0.017788 0.348262 0.028217 15.215762 -63.958598 1.604348 -175.610784 65.590518 -171.928762 3.952078 -23.357532 4.112577 -0.303112 -1.148982 -0.137957
306.570797 53.643709 91.804884 -50.682069 -26.072684 -0.805923 -0.163870 15.626253 -0.285974 -0.111772 6.867025 -0.432425 -0.111772 6.867025 -0.432425 -0.078849 5.150351 -0.322668 -4.645029 11.458760 -0.885366 -8.532503 -14.819029 0.329768 -5.410838 1.177288 6.368413 25.732552 -29.986361 -27.672276 12.775604 -33.894198 5.678518 35.434995 -3.852533 -21.794542 0.913301 -0.094141 -5.659683 -24.052333 -32.892927 33.333945 12.874099 -28.484715 -13.896812 -27.502414 -3.282942 13.503554 -20.014786 -61.680709 4.991125 -176.828687 74.573284 173.955747 2.468901 -16.600422 -1.525435 0.018028 0.351043 0.026970 15.246088 -63.960891 1.566727 -175.631711 65.590171 -171.943455 3.916064 -23.347670 4.136233 -0.309593 -1.147687 -0.141295
